<svg viewBox="0 0 512 512" xmlns="http://www.w3.org/2000/svg" fill="none">
    <g transform="matrix(1.304645,0,0,1.304645,-98.552158,-63.530725)" fill="#c65a2e" fill-rule="evenodd" clip-rule="evenodd">
        <path d="M191.309,82.969C192.95,81.157 198.302,80.142 202.346,81.39C206.474,82.665 209.277,86.264 209.277,90.521C209.277,141.948 209.277,193.514 209.277,244.941L142.295,304.965L142.295,136.985C142.295,136.985 180.604,94.793 191.309,82.969"/>
        <path d="M228.188,342.012L143.31,342.012C143.357,341.64 136.802,341.599 135.365,332.771C134.279,326.1 139.299,321.999 139.299,321.999L315.23,163.966C315.23,163.966 383.959,163.953 399.242,163.966C403.604,163.97 406.551,167.136 407.722,169.967C408.892,172.797 408.307,179.022 406.082,181.06C404.407,182.593 228.188,342.012 228.188,342.012Z"/>
        <path d="M227.958,342.016L337.995,342.016L392.255,390.848C399.224,398.335 391.455,408.808 387.298,408.997L303.3,408.997L227.958,342.016Z"/>
    </g>
</svg>
